:FULLY-SPECIFIED
:FORCE-ALL-JOINTS-BE-3DOF
:DEGREES
388
root 9.50283 16.9785 18.2554 6.3662 1.14312 -5.33148
lfemur -39.291 1.15075 -13.4367
ltibia 38.6592 0 0
lfoot -15.483 12.644 0
ltoes -7.71851 0 0
rfemur 2.0242 6.03881 31.163
rtibia 14.8392 0 0
rfoot -13.6876 4.99247 0
rtoes -12.2745 0 0
lowerback -6.9414 1.79855 1.71758
upperback -0.222874 2.09907 3.43287
thorax 3.6229 1.05064 2.84465
lowerneck -19.6615 -6.18995 -12.9108
upperneck 21.3573 -7.9698 12.7897
head 11.2534 -3.1996 5.61075
lclavicle 6.31864e-015 -7.54097e-015 0
lhumerus -50.0593 -13.6671 97.0045
lradius 27.698 0 0
lwrist 10.278 0 0
lhand -12.5632 -24.2547 0
lfingers 7.12502 0 0
lthumb 13.5135 5.27543 0
rclavicle 6.31864e-015 -7.54097e-015 0
rhumerus -30.074 16.7461 -84.3878
rradius 42.0105 0 0
rwrist -20.6545 0 0
rhand -30.7921 -22.459 0
rfingers 7.12502 0 0
rthumb -4.08238 -52.3991 0
389
root 9.51398 16.9724 18.3917 6.37697 0.971196 -5.47862
lfemur -39.5293 0.860975 -13.1399
ltibia 37.5591 0 0
lfoot -15.5201 12.6993 0
ltoes -8.01704 0 0
rfemur 2.9955 6.03029 31.295
rtibia 13.9118 0 0
rfoot -13.3175 5.11476 0
rtoes -12.1494 0 0
lowerback -7.0197 1.89017 1.82006
upperback -0.192428 2.20699 3.47584
thorax 3.697 1.10532 2.84685
lowerneck -19.6399 -6.18618 -12.9411
upperneck 21.3484 -7.96102 12.8075
head 11.2468 -3.19685 5.62418
lclavicle 6.80118e-015 -8.75933e-015 0
lhumerus -50.2721 -13.3923 96.9648
lradius 27.6609 0 0
lwrist 10.1502 0 0
lhand -12.4256 -24.3803 0
lfingers 7.12502 0 0
lthumb 13.6462 5.14093 0
rclavicle 6.80118e-015 -8.75933e-015 0
rhumerus -29.8825 16.6412 -84.4155
rradius 41.8531 0 0
rwrist -20.4813 0 0
rhand -30.7589 -22.3704 0
rfingers 7.12502 0 0
rthumb -4.05027 -52.311 0
390
root 9.52513 16.9662 18.528 6.38775 0.799268 -5.62575
lfemur -39.7677 0.571205 -12.8431
ltibia 36.459 0 0
lfoot -15.5571 12.7545 0
ltoes -8.31558 0 0
rfemur 3.9668 6.02178 31.427
rtibia 12.9843 0 0
rfoot -12.9474 5.23704 0
rtoes -12.0242 0 0
lowerback -7.098 1.9818 1.92253
upperback -0.161982 2.31491 3.51881
thorax 3.7711 1.16001 2.84905
lowerneck -19.6182 -6.18242 -12.9714
upperneck 21.3396 -7.95225 12.8252
head 11.2403 -3.1941 5.63761
lclavicle 7.28371e-015 -9.97769e-015 0
lhumerus -50.4848 -13.1176 96.9252
lradius 27.6237 0 0
lwrist 10.0225 0 0
lhand -12.288 -24.506 0
lfingers 7.12502 0 0
lthumb 13.7788 5.00642 0
rclavicle 7.28371e-015 -9.97769e-015 0
rhumerus -29.6911 16.5364 -84.4433
rradius 41.6957 0 0
rwrist -20.3081 0 0
rhand -30.7256 -22.2817 0
rfingers 7.12502 0 0
rthumb -4.01817 -52.2229 0
391
root 9.53629 16.96 18.6643 6.39852 0.627341 -5.77289
lfemur -40.0061 0.281434 -12.5464
ltibia 35.3589 0 0
lfoot -15.5941 12.8098 0
ltoes -8.61412 0 0
rfemur 4.9381 6.01326 31.559
rtibia 12.0569 0 0
rfoot -12.5773 5.35932 0
rtoes -11.8991 0 0
lowerback -7.17631 2.07342 2.02501
upperback -0.131536 2.42284 3.56178
thorax 3.84521 1.21469 2.85126
lowerneck -19.5966 -6.17866 -13.0018
upperneck 21.3307 -7.94348 12.8429
head 11.2337 -3.19134 5.65104
lclavicle 7.76625e-015 -1.1196e-014 0
lhumerus -50.6976 -12.8429 96.8856
lradius 27.5865 0 0
lwrist 9.89472 0 0
lhand -12.1504 -24.6316 0
lfingers 7.12502 0 0
lthumb 13.9114 4.87191 0
rclavicle 7.76625e-015 -1.1196e-014 0
rhumerus -29.4997 16.4315 -84.4711
rradius 41.5383 0 0
rwrist -20.135 0 0
rhand -30.6924 -22.193 0
rfingers 7.12502 0 0
rthumb -3.98607 -52.1348 0
392
root 9.54744 16.9539 18.8005 6.4093 0.455413 -5.92003
lfemur -40.2445 -0.00833613 -12.2496
ltibia 34.2588 0 0
lfoot -15.6311 12.865 0
ltoes -8.91265 0 0
rfemur 5.9094 6.00474 31.691
rtibia 11.1294 0 0
rfoot -12.2072 5.48161 0
rtoes -11.7739 0 0
lowerback -7.25461 2.16505 2.12749
upperback -0.101091 2.53076 3.60474
thorax 3.91931 1.26938 2.85346
lowerneck -19.575 -6.1749 -13.0321
upperneck 21.3219 -7.9347 12.8606
head 11.2272 -3.18859 5.66447
lclavicle 8.24878e-015 -1.24144e-014 0
lhumerus -50.9104 -12.5682 96.8459
lradius 27.5493 0 0
lwrist 9.76697 0 0
lhand -12.0128 -24.7572 0
lfingers 7.12502 0 0
lthumb 14.044 4.7374 0
rclavicle 8.24878e-015 -1.24144e-014 0
rhumerus -29.3082 16.3267 -84.4988
rradius 41.3809 0 0
rwrist -19.9618 0 0
rhand -30.6591 -22.1043 0
rfingers 7.12502 0 0
rthumb -3.95397 -52.0467 0
393
root 9.55859 16.9477 18.9368 6.42007 0.283485 -6.06716
lfemur -40.4829 -0.298106 -11.9528
ltibia 33.1587 0 0
lfoot -15.6681 12.9202 0
ltoes -9.21119 0 0
rfemur 6.8807 5.99623 31.8231
rtibia 10.202 0 0
rfoot -11.8371 5.60389 0
rtoes -11.6488 0 0
lowerback -7.33291 2.25667 2.22997
upperback -0.0706449 2.63869 3.64771
thorax 3.99341 1.32406 2.85566
lowerneck -19.5533 -6.17114 -13.0624
upperneck 21.313 -7.92593 12.8783
head 11.2206 -3.18584 5.6779
lclavicle 8.73132e-015 -1.36328e-014 0
lhumerus -51.1231 -12.2935 96.8063
lradius 27.5121 0 0
lwrist 9.63922 0 0
lhand -11.8753 -24.8829 0
lfingers 7.12502 0 0
lthumb 14.1766 4.60289 0
rclavicle 8.73132e-015 -1.36328e-014 0
rhumerus -29.1168 16.2218 -84.5266
rradius 41.2236 0 0
rwrist -19.7886 0 0
rhand -30.6259 -22.0156 0
rfingers 7.12502 0 0
rthumb -3.92186 -51.9587 0
394
root 9.56975 16.9415 19.0731 6.43084 0.111557 -6.2143
lfemur -40.7213 -0.587877 -11.6561
ltibia 32.0586 0 0
lfoot -15.7051 12.9755 0
ltoes -9.50973 0 0
rfemur 7.852 5.98771 31.9551
rtibia 9.27452 0 0
rfoot -11.467 5.72617 0
rtoes -11.5236 0 0
lowerback -7.41122 2.34829 2.33244
upperback -0.0401991 2.74661 3.69068
thorax 4.06752 1.37875 2.85786
lowerneck -19.5317 -6.16738 -13.0927
upperneck 21.3042 -7.91716 12.896
head 11.2141 -3.18309 5.69133
lclavicle 9.21385e-015 -1.48511e-014 0
lhumerus -51.3359 -12.0188 96.7667
lradius 27.4749 0 0
lwrist 9.51147 0 0
lhand -11.7377 -25.0085 0
lfingers 7.12502 0 0
lthumb 14.3092 4.46838 0
rclavicle 9.21385e-015 -1.48511e-014 0
rhumerus -28.9254 16.1169 -84.5544
rradius 41.0662 0 0
rwrist -19.6154 0 0
rhand -30.5927 -21.9269 0
rfingers 7.12502 0 0
rthumb -3.88976 -51.8706 0
